<svg xmlns="http://www.w3.org/2000/svg" version="1.1" xmlns:xlink="http://www.w3.org/1999/xlink" xmlns:svgjs="http://svgjs.dev/svgjs" width="1000" height="1000"><g clip-path="url(#SvgjsClipPath1394)"><rect width="1000" height="1000" fill="#ffffff"></rect><g transform="matrix(7.8125,0,0,7.8125,0,0)"><svg xmlns="http://www.w3.org/2000/svg" version="1.1" xmlns:xlink="http://www.w3.org/1999/xlink" xmlns:svgjs="http://svgjs.dev/svgjs" width="128" height="128"><svg xmlns:xlink="http://www.w3.org/1999/xlink" xmlns="http://www.w3.org/2000/svg" fill="#000000" width="128" height="128" viewBox="-2 -2 24 24" preserveAspectRatio="xMinYMin" class="jam jam-task-list-f"><path d="M6 0h8a6 6 0 0 1 6 6v8a6 6 0 0 1-6 6H6a6 6 0 0 1-6-6V6a6 6 0 0 1 6-6zm6 9a1 1 0 0 0 0 2h3a1 1 0 1 0 0-2h-3zm-2 4a1 1 0 0 0 0 2h5a1 1 0 1 0 0-2h-5zm0-8a1 1 0 1 0 0 2h5a1 1 0 0 0 0-2h-5zm-4.172 5.243l-.707-.707a1 1 0 1 0-1.414 1.414l1.414 1.414a1 1 0 0 0 1.415 0l2.828-2.828A1 1 0 0 0 7.95 8.12l-2.122 2.122z"></path></svg></svg></g></g><defs><clipPath id="SvgjsClipPath1394"><rect width="1000" height="1000" x="0" y="0" rx="500" ry="500"></rect></clipPath></defs></svg>